<svg id="svg" version="1.1" width="400" height="177.2941603191875" viewBox="0 0 400 177.2941603191875" xmlns="http://www.w3.org/2000/svg" xmlns:xlink="http://www.w3.org/1999/xlink" ><g id="svgg"><path id="path0" d="M32.958 32.958 L 24.667 33.003 24.667 35.752 L 24.667 38.500 71.417 38.500 L 118.167 38.500 118.167 35.667 L 118.167 32.833 79.708 32.873 C 58.556 32.895,37.519 32.934,32.958 32.958 M24.777 43.612 C 24.545 43.844,24.676 111.294,24.912 113.039 C 25.994 121.045,29.159 127.376,35.083 133.390 C 37.293 135.633,41.423 139.015,43.459 140.250 C 43.610 140.342,44.093 140.660,44.532 140.958 C 44.971 141.256,45.381 141.500,45.444 141.500 C 45.506 141.500,45.675 141.606,45.820 141.737 C 46.086 141.976,47.485 142.802,49.167 143.713 C 49.671 143.986,50.282 144.350,50.526 144.521 C 50.769 144.693,51.047 144.833,51.143 144.833 C 51.240 144.833,51.678 145.042,52.118 145.297 C 52.557 145.551,53.517 146.046,54.250 146.395 C 55.978 147.219,56.283 147.367,57.083 147.771 C 58.153 148.311,59.798 149.079,61.500 149.832 C 62.371 150.218,63.458 150.707,63.917 150.919 C 64.375 151.131,65.537 151.660,66.500 152.095 C 67.462 152.529,68.953 153.218,69.812 153.626 C 71.101 154.237,71.437 154.336,71.729 154.189 C 71.924 154.091,72.458 153.867,72.917 153.693 C 74.785 152.980,77.260 151.960,77.417 151.838 C 77.508 151.766,77.771 151.654,78.000 151.590 C 78.681 151.397,82.621 149.734,84.917 148.669 C 87.517 147.464,93.009 144.710,93.795 144.217 C 94.278 143.914,94.718 143.667,94.773 143.667 C 94.927 143.667,96.759 142.550,98.307 141.514 C 99.072 141.002,99.934 140.444,100.224 140.273 C 100.513 140.102,100.787 139.914,100.833 139.855 C 100.879 139.796,101.517 139.303,102.250 138.759 C 105.493 136.353,109.175 132.738,111.258 129.917 C 111.529 129.550,111.806 129.225,111.875 129.194 C 111.944 129.164,112.000 129.049,112.000 128.938 C 112.000 128.828,112.222 128.478,112.493 128.160 C 112.765 127.843,112.990 127.528,112.993 127.461 C 112.997 127.394,113.300 126.849,113.667 126.250 C 114.033 125.651,114.333 125.088,114.333 125.000 C 114.333 124.911,114.558 124.473,114.833 124.026 C 115.108 123.579,115.333 123.104,115.333 122.971 C 115.333 122.838,115.520 122.343,115.747 121.871 C 116.173 120.988,116.550 119.759,117.241 117.000 C 118.077 113.659,118.083 113.380,118.083 77.250 L 118.083 43.583 71.486 43.541 C 45.858 43.518,24.839 43.550,24.777 43.612 M112.833 79.821 C 112.833 112.143,112.844 111.646,112.065 115.064 C 109.420 126.658,99.290 136.459,82.667 143.509 C 82.071 143.761,80.871 144.281,80.000 144.663 C 79.129 145.046,77.892 145.569,77.250 145.826 C 76.608 146.082,75.232 146.639,74.192 147.063 C 73.152 147.487,72.270 147.833,72.234 147.833 C 72.197 147.833,72.167 125.633,72.167 98.500 L 72.167 49.167 71.417 49.167 L 70.667 49.167 70.667 98.500 C 70.667 125.633,70.638 147.833,70.602 147.833 C 70.567 147.833,70.060 147.615,69.477 147.348 C 68.894 147.081,66.767 146.136,64.750 145.249 C 58.261 142.393,54.362 140.541,51.500 138.956 C 38.769 131.904,31.982 123.366,30.472 112.500 C 30.274 111.079,30.049 49.714,30.239 49.218 C 30.308 49.039,37.771 49.000,71.578 49.000 L 112.833 49.000 112.833 79.821 M94.591 63.849 C 94.234 64.162,93.934 64.625,93.825 65.031 C 93.401 66.605,93.068 66.827,92.256 66.074 C 91.613 65.478,91.593 65.608,92.098 67.103 C 92.494 68.278,92.530 68.578,92.442 69.944 L 92.344 71.472 93.089 71.726 L 93.833 71.980 93.834 71.365 C 93.834 70.666,94.412 68.180,95.160 65.663 C 95.902 63.166,95.787 62.799,94.591 63.849 M90.000 71.989 C 86.020 72.792,85.481 78.719,89.112 81.750 C 90.862 83.211,94.183 85.830,94.498 85.999 C 94.931 86.230,94.932 86.667,94.500 86.667 C 94.198 86.667,94.167 86.778,94.167 87.833 C 94.167 89.169,94.179 89.176,95.629 88.746 C 99.291 87.658,98.392 84.828,93.391 81.698 C 90.051 79.608,88.760 77.821,89.333 76.084 C 89.697 74.981,90.425 74.764,91.770 75.360 C 92.561 75.709,92.612 75.712,93.667 75.446 C 94.262 75.295,95.200 75.131,95.750 75.081 C 98.031 74.873,97.708 73.853,95.094 73.008 C 94.263 72.739,93.171 72.367,92.667 72.182 C 91.724 71.835,91.019 71.784,90.000 71.989 M92.098 77.083 C 92.170 77.542,92.240 78.397,92.255 78.984 C 92.277 79.849,92.355 80.127,92.666 80.450 C 93.236 81.042,93.667 81.242,93.667 80.915 C 93.667 80.393,95.226 79.080,96.711 78.352 C 98.371 77.538,98.978 76.893,97.886 77.103 C 96.672 77.337,96.578 77.308,96.636 76.708 C 96.716 75.874,96.380 76.027,95.053 77.433 C 93.510 79.067,93.366 78.997,93.771 76.808 C 93.851 76.376,93.829 76.364,92.910 76.308 L 91.968 76.250 92.098 77.083 M55.975 78.889 C 53.802 79.699,52.504 82.359,52.505 86.000 C 52.506 89.757,53.701 92.136,56.333 93.624 C 59.231 95.262,60.048 96.293,60.311 98.645 C 60.902 103.921,58.286 107.524,55.285 105.566 C 54.120 104.805,53.345 103.244,52.753 100.462 C 52.483 99.195,52.281 98.795,52.120 99.214 C 51.925 99.722,52.525 105.062,52.848 105.696 C 53.548 107.067,55.716 107.806,57.500 107.281 C 60.073 106.524,61.362 103.840,61.396 99.167 C 61.431 94.278,60.533 92.491,56.917 90.255 C 53.727 88.283,52.719 85.544,53.985 82.289 C 55.609 78.114,59.036 79.266,60.324 84.420 C 60.655 85.744,60.756 85.966,60.944 85.779 C 61.067 85.655,61.061 85.073,60.902 81.862 L 60.792 79.641 60.398 79.740 C 60.131 79.807,59.715 79.675,59.104 79.330 C 58.041 78.731,56.850 78.563,55.975 78.889 M33.250 79.499 C 33.158 79.790,33.272 79.999,33.795 80.502 C 34.992 81.652,35.085 82.380,35.072 90.500 C 35.056 101.196,34.738 104.862,33.748 105.802 C 33.154 106.367,33.103 106.474,33.252 106.861 C 33.415 107.286,37.404 107.162,37.467 106.730 C 37.500 106.495,37.322 106.237,36.907 105.921 C 36.033 105.254,35.800 104.557,35.709 102.333 C 35.624 100.242,35.939 87.505,36.080 87.365 C 36.271 87.173,36.451 87.815,38.687 96.692 C 39.963 101.761,41.080 105.980,41.168 106.068 C 41.486 106.386,41.267 107.126,44.434 95.000 C 47.265 84.158,47.096 84.088,47.248 96.175 C 47.354 104.541,47.307 105.144,46.491 105.925 C 45.792 106.595,45.808 107.247,46.521 107.104 C 46.807 107.047,47.774 107.000,48.670 107.000 C 50.647 107.000,50.836 106.816,49.848 105.848 C 48.778 104.799,48.772 104.714,48.760 92.204 L 48.750 81.157 49.458 80.483 C 50.213 79.764,50.241 79.708,50.019 79.358 C 49.907 79.181,49.646 79.163,48.818 79.274 L 47.760 79.417 47.394 80.750 C 46.899 82.547,45.868 86.436,44.919 90.083 C 44.490 91.733,44.004 93.571,43.838 94.167 C 43.673 94.763,43.178 96.619,42.739 98.292 C 42.299 99.965,41.876 101.333,41.799 101.333 C 41.550 101.333,41.360 100.679,39.674 94.000 C 35.467 77.339,36.146 79.288,34.514 79.196 C 33.450 79.136,33.359 79.158,33.250 79.499 M63.500 79.595 C 63.500 79.842,63.692 80.080,64.073 80.305 C 65.317 81.039,65.245 80.133,65.295 95.534 C 65.334 107.339,65.304 109.494,65.088 110.534 C 64.643 112.672,63.793 113.279,63.137 111.928 C 62.688 111.004,62.567 110.983,62.342 111.792 C 61.347 115.373,63.822 115.747,65.497 112.269 C 66.866 109.426,66.875 109.320,66.986 94.477 L 67.083 81.370 67.625 80.616 C 68.576 79.292,68.524 79.252,65.833 79.236 C 63.526 79.223,63.500 79.227,63.500 79.595 M92.093 87.617 C 92.219 90.351,92.193 90.282,93.258 90.686 L 94.018 90.975 94.176 90.560 C 94.416 89.928,94.367 89.644,94.000 89.548 C 93.696 89.469,93.666 89.320,93.664 87.856 L 93.661 86.250 92.820 85.700 L 91.979 85.150 92.093 87.617 M90.668 87.432 C 87.139 88.962,88.648 92.641,93.339 93.945 C 94.378 94.234,94.702 94.531,94.355 94.878 C 94.169 95.064,94.077 97.667,94.257 97.667 C 95.067 97.667,96.747 96.002,96.910 95.038 C 97.224 93.182,96.408 92.324,93.311 91.250 C 91.767 90.714,90.641 89.833,91.500 89.833 C 91.680 89.833,91.734 87.868,91.566 87.430 C 91.443 87.112,91.406 87.112,90.668 87.432 M92.211 96.592 C 92.311 98.975,92.343 99.075,93.154 99.551 L 93.667 99.852 93.665 98.218 C 93.663 95.549,93.534 94.859,92.984 94.575 C 92.118 94.127,92.109 94.150,92.211 96.592 M90.667 95.886 C 89.264 96.619,88.667 97.456,88.667 98.687 C 88.667 100.030,89.356 100.803,93.006 103.550 C 93.976 104.279,94.126 104.586,94.198 105.983 C 94.255 107.094,94.283 107.121,95.021 106.739 C 96.041 106.212,96.453 104.396,95.852 103.073 C 95.523 102.349,94.887 101.786,92.760 100.333 L 91.417 99.416 91.475 98.056 C 91.532 96.707,91.410 95.666,91.195 95.668 C 91.134 95.668,90.896 95.767,90.667 95.886 M91.799 106.789 C 91.846 109.570,91.871 109.768,92.216 110.138 C 92.549 110.495,93.346 111.000,93.575 111.000 C 93.691 111.000,93.663 108.574,93.523 106.508 L 93.417 104.932 92.695 104.383 C 92.299 104.080,91.924 103.833,91.862 103.833 C 91.800 103.833,91.772 105.163,91.799 106.789 M90.750 106.028 C 88.692 107.166,88.264 110.026,89.932 111.491 C 91.147 112.558,93.708 113.340,95.917 113.319 C 97.754 113.302,97.690 113.107,95.655 112.526 C 93.629 111.948,92.973 111.616,91.893 110.624 L 91.202 109.990 91.292 107.912 C 91.383 105.798,91.353 105.694,90.750 106.028 M92.037 115.431 C 92.215 119.637,93.355 119.750,93.610 115.587 L 93.714 113.885 93.149 113.790 C 92.838 113.738,92.441 113.639,92.268 113.570 C 91.966 113.451,91.956 113.533,92.037 115.431 " stroke="none" fill="#e1e2e2" fill-rule="evenodd"></path><path id="path1" d="M257.000 46.433 C 256.771 46.474,255.918 46.624,255.105 46.766 C 250.701 47.535,246.901 50.496,245.027 54.617 C 243.516 57.939,243.512 64.074,245.018 67.261 C 245.283 67.823,245.500 68.342,245.500 68.416 C 245.500 68.965,247.715 71.681,248.956 72.653 C 253.153 75.940,260.247 76.451,265.719 73.861 C 266.618 73.435,267.474 72.954,267.620 72.793 C 267.766 72.632,267.969 72.500,268.071 72.500 C 268.276 72.500,270.826 70.005,271.515 69.131 C 274.186 65.744,275.164 59.778,273.742 55.545 C 273.517 54.875,273.333 54.244,273.333 54.143 C 273.333 53.453,269.972 49.167,269.431 49.167 C 269.343 49.167,269.117 49.022,268.927 48.844 C 268.121 48.089,265.785 47.148,263.500 46.659 C 262.575 46.461,257.772 46.294,257.000 46.433 M331.093 47.708 C 330.635 48.913,330.285 49.741,329.032 52.583 C 328.424 53.963,327.123 56.884,326.583 58.083 C 326.459 58.358,326.043 59.296,325.658 60.167 C 325.273 61.038,324.705 62.294,324.396 62.959 C 324.087 63.624,323.833 64.221,323.833 64.286 C 323.833 64.350,323.599 64.894,323.313 65.493 C 323.027 66.093,322.549 67.108,322.251 67.750 C 319.690 73.263,319.581 73.417,318.085 73.577 L 317.000 73.693 317.000 74.388 L 317.000 75.083 321.750 75.083 L 326.500 75.083 326.500 74.388 C 326.500 73.612,326.595 73.662,324.540 73.346 C 323.284 73.152,323.167 73.088,323.167 72.601 C 323.167 72.144,324.061 69.615,324.912 67.667 C 325.252 66.887,325.570 66.118,325.618 65.956 C 325.701 65.682,326.087 65.665,331.449 65.706 L 337.192 65.750 337.497 66.583 C 337.665 67.042,337.970 67.829,338.175 68.333 C 340.341 73.672,340.401 73.283,337.375 73.593 L 336.333 73.699 336.333 74.391 L 336.333 75.083 341.833 75.083 L 347.333 75.083 347.333 74.381 L 347.333 73.678 346.478 73.565 C 344.883 73.353,344.746 73.127,341.167 64.833 C 340.870 64.146,340.374 63.002,340.064 62.292 C 339.754 61.581,339.246 60.419,338.936 59.708 C 338.626 58.998,338.130 57.854,337.833 57.167 C 337.291 55.910,336.665 54.471,335.583 52.000 C 335.262 51.267,334.747 50.085,334.437 49.375 C 333.046 46.185,333.274 46.500,332.362 46.500 L 331.553 46.500 331.093 47.708 M281.042 46.780 L 276.167 46.838 276.167 47.481 L 276.167 48.124 277.507 48.201 C 280.085 48.351,279.958 47.871,280.093 58.000 C 280.293 72.941,280.198 73.533,277.580 73.642 L 276.167 73.701 276.167 74.392 L 276.167 75.083 282.167 75.083 L 288.167 75.083 288.167 74.375 L 288.167 73.667 287.042 73.666 C 285.494 73.664,284.769 73.439,284.505 72.874 C 284.047 71.894,283.867 54.159,284.275 50.054 L 284.377 49.025 285.563 48.721 C 290.646 47.418,294.369 49.465,294.404 53.583 C 294.436 57.415,291.755 59.661,287.143 59.665 C 285.344 59.667,284.979 60.117,285.968 61.112 C 286.226 61.371,286.985 62.258,287.656 63.083 C 288.327 63.908,288.942 64.608,289.021 64.639 C 289.101 64.669,289.167 64.792,289.167 64.910 C 289.167 65.029,289.278 65.218,289.414 65.331 C 289.550 65.444,290.206 66.282,290.872 67.192 C 291.538 68.103,292.327 69.164,292.624 69.549 C 292.921 69.935,293.334 70.482,293.541 70.765 C 295.008 72.777,295.578 73.500,295.697 73.500 C 295.772 73.500,295.833 73.599,295.833 73.720 C 295.833 73.841,296.050 74.183,296.315 74.480 L 296.798 75.020 299.566 75.052 L 302.334 75.083 302.333 74.375 C 302.333 73.726,302.298 73.667,301.906 73.667 C 301.248 73.667,300.939 73.432,299.988 72.211 C 299.504 71.591,298.887 70.846,298.618 70.555 C 298.348 70.265,298.043 69.880,297.939 69.701 C 297.835 69.521,297.450 69.002,297.083 68.548 C 296.717 68.093,296.004 67.175,295.500 66.509 C 294.996 65.842,294.340 65.015,294.042 64.670 C 293.744 64.325,293.500 63.991,293.500 63.927 C 293.500 63.863,293.277 63.535,293.004 63.197 C 291.046 60.774,291.056 60.823,292.458 60.434 C 300.071 58.327,301.459 49.222,294.494 47.088 C 293.456 46.771,289.449 46.679,281.042 46.780 M303.667 47.458 L 303.667 48.167 304.755 48.167 C 307.417 48.167,307.251 47.306,307.248 61.083 C 307.245 74.404,307.396 73.667,304.672 73.667 L 303.667 73.667 303.667 74.375 L 303.667 75.083 309.500 75.083 L 315.333 75.083 315.333 74.393 L 315.333 73.702 314.011 73.642 C 311.355 73.521,311.544 74.507,311.520 60.633 C 311.496 47.149,311.284 48.167,314.118 48.167 L 315.352 48.167 315.301 47.497 L 315.250 46.826 309.458 46.788 L 303.667 46.750 303.667 47.458 M349.000 47.458 L 349.000 48.167 350.425 48.167 C 351.908 48.167,352.699 48.409,352.896 48.924 C 352.953 49.073,353.000 54.360,353.000 60.674 L 353.000 72.155 352.461 72.769 C 352.164 73.107,351.677 73.485,351.378 73.610 C 350.901 73.810,350.833 73.915,350.833 74.461 L 350.833 75.083 360.292 75.041 C 371.043 74.994,371.467 74.971,371.573 74.446 C 371.690 73.868,371.847 72.395,372.003 70.417 C 372.083 69.408,372.199 68.340,372.262 68.042 L 372.375 67.500 371.631 67.500 L 370.886 67.500 370.372 69.208 C 370.089 70.148,369.810 71.226,369.751 71.604 L 369.645 72.290 367.864 72.562 C 365.596 72.907,361.273 73.083,358.953 72.924 L 357.156 72.801 357.203 60.802 L 357.250 48.804 357.643 48.485 C 357.968 48.222,358.310 48.167,359.602 48.167 L 361.167 48.167 361.167 47.458 L 361.167 46.750 355.083 46.750 L 349.000 46.750 349.000 47.458 M141.333 47.475 L 141.333 48.117 142.625 48.223 C 145.467 48.456,145.239 47.539,145.301 58.966 C 145.380 73.667,145.381 73.659,142.542 73.664 L 141.333 73.667 141.333 74.375 L 141.333 75.083 146.333 75.083 L 151.333 75.083 151.333 74.375 L 151.333 73.667 150.208 73.666 C 148.824 73.666,148.004 73.301,147.773 72.583 C 147.445 71.564,147.463 52.326,147.791 53.000 C 147.947 53.321,148.807 55.121,149.702 57.000 C 150.598 58.879,151.428 60.604,151.549 60.833 C 151.669 61.063,151.925 61.550,152.117 61.917 C 152.310 62.283,152.967 63.633,153.577 64.917 C 154.187 66.200,154.943 67.775,155.257 68.417 C 156.478 70.916,157.962 74.120,158.247 74.875 C 158.665 75.985,159.347 76.021,159.819 74.958 C 159.993 74.569,160.489 73.462,160.922 72.500 C 161.355 71.537,161.892 70.337,162.116 69.833 C 162.339 69.329,162.788 68.354,163.113 67.667 C 163.439 66.979,163.918 65.967,164.178 65.417 C 164.438 64.867,165.171 63.329,165.808 62.000 C 166.444 60.671,167.466 58.533,168.078 57.250 C 169.368 54.544,169.331 54.620,169.801 53.750 C 169.999 53.383,170.256 52.858,170.372 52.583 C 170.601 52.042,170.794 70.128,170.580 71.954 C 170.418 73.327,170.123 73.568,168.516 73.641 L 167.167 73.702 167.167 74.393 L 167.167 75.083 172.917 75.083 L 178.667 75.083 178.667 74.375 L 178.667 73.667 177.492 73.667 C 174.769 73.667,174.927 74.413,174.868 61.250 C 174.808 47.581,174.656 48.394,177.309 48.212 L 178.667 48.119 178.667 47.476 L 178.667 46.833 174.625 46.835 L 170.583 46.836 169.936 48.293 C 169.264 49.804,168.977 50.417,167.008 54.548 C 166.362 55.904,165.833 57.047,165.833 57.089 C 165.833 57.182,163.089 62.850,161.377 66.292 L 160.113 68.834 159.838 68.375 C 159.686 68.123,159.088 66.942,158.509 65.750 C 157.930 64.558,156.297 61.221,154.881 58.333 C 151.793 52.039,150.630 49.599,149.819 47.708 L 149.443 46.833 145.388 46.833 L 141.333 46.833 141.333 47.475 M180.333 47.500 C 180.333 47.867,180.352 48.170,180.375 48.175 C 180.398 48.179,181.090 48.286,181.913 48.412 C 184.370 48.789,184.251 48.111,184.246 61.750 C 184.242 74.205,184.354 73.659,181.792 73.664 L 180.667 73.667 180.667 74.375 L 180.667 75.083 191.458 75.083 C 202.632 75.083,202.734 75.077,202.567 74.413 C 202.512 74.193,202.551 73.054,202.654 71.881 C 202.757 70.709,202.872 69.352,202.909 68.866 L 202.978 67.983 202.206 68.033 L 201.434 68.083 201.071 69.667 C 200.871 70.537,200.661 71.514,200.603 71.837 C 200.505 72.394,200.449 72.436,199.541 72.647 C 197.070 73.222,189.294 73.271,188.739 72.715 C 188.541 72.518,188.500 71.541,188.500 67.096 L 188.500 61.715 189.625 61.609 C 192.479 61.339,196.637 61.604,197.173 62.089 C 197.542 62.423,197.833 63.560,197.833 64.666 L 197.833 65.518 198.598 65.467 L 199.363 65.417 199.390 60.708 L 199.417 56.000 198.625 56.000 L 197.833 56.000 197.832 56.875 C 197.831 57.935,197.585 58.889,197.238 59.177 C 196.931 59.432,192.582 59.647,190.103 59.531 L 188.455 59.453 188.533 54.310 C 188.576 51.481,188.668 49.110,188.736 49.042 C 189.022 48.756,197.700 48.905,198.700 49.213 C 199.897 49.580,199.898 49.582,199.999 51.583 L 200.083 53.250 200.875 53.301 L 201.667 53.352 201.667 52.384 C 201.668 51.206,202.068 48.654,202.399 47.717 C 202.532 47.339,202.597 46.986,202.543 46.932 C 202.489 46.878,197.469 46.833,191.389 46.833 L 180.333 46.833 180.333 47.500 M205.167 47.476 L 205.167 48.119 206.375 48.210 C 209.007 48.410,208.833 47.582,208.833 59.904 C 208.833 73.845,208.886 73.533,206.496 73.642 L 205.167 73.702 205.167 74.393 L 205.167 75.083 210.083 75.083 L 215.000 75.083 215.000 74.375 L 215.000 73.667 213.875 73.666 C 212.322 73.666,211.667 73.320,211.355 72.333 C 211.132 71.629,210.851 55.142,211.027 53.100 C 211.087 52.403,210.988 52.237,213.152 56.667 C 213.219 56.804,213.430 57.217,213.621 57.583 C 214.163 58.627,217.515 65.500,218.742 68.083 C 220.526 71.842,220.764 72.347,221.414 73.750 C 222.250 75.556,222.246 75.548,222.381 75.522 C 222.446 75.510,222.669 75.498,222.875 75.496 C 223.265 75.491,223.528 75.056,224.192 73.307 C 224.362 72.860,224.572 72.364,224.659 72.205 C 224.745 72.047,225.169 71.129,225.600 70.167 C 226.031 69.204,226.650 67.854,226.976 67.167 C 227.302 66.479,227.792 65.429,228.064 64.833 C 228.526 63.822,228.928 63.001,229.450 62.000 C 229.569 61.771,230.420 60.008,231.341 58.083 C 232.262 56.158,233.312 53.996,233.675 53.278 L 234.333 51.973 234.333 60.961 C 234.333 74.239,234.441 73.665,231.958 73.666 L 230.833 73.667 230.833 74.375 L 230.833 75.083 236.500 75.083 L 242.167 75.083 242.167 74.393 L 242.167 73.703 240.925 73.640 C 238.399 73.513,238.546 74.295,238.519 60.816 C 238.493 47.483,238.321 48.372,240.958 48.201 L 242.167 48.123 242.167 47.478 L 242.167 46.833 238.172 46.833 L 234.177 46.833 233.769 47.708 C 233.545 48.190,233.009 49.371,232.578 50.333 C 232.148 51.296,231.583 52.533,231.323 53.083 C 231.064 53.633,230.625 54.571,230.349 55.167 C 229.487 57.025,225.323 65.545,224.891 66.333 C 224.666 66.746,224.325 67.440,224.135 67.875 C 223.622 69.048,223.959 69.547,220.624 62.667 C 219.936 61.246,218.624 58.546,217.709 56.667 C 215.862 52.875,215.096 51.275,213.859 48.625 L 213.022 46.833 209.094 46.833 L 205.167 46.833 205.167 47.476 M262.051 48.809 C 265.192 49.748,268.305 52.797,268.973 55.587 C 269.061 55.952,269.254 56.707,269.403 57.266 C 271.803 66.288,266.070 74.712,258.347 73.513 C 252.013 72.531,248.148 67.208,248.173 59.500 C 248.199 51.337,254.436 46.532,262.051 48.809 M30.373 80.375 L 30.419 111.583 30.804 113.667 C 33.203 126.636,41.821 134.992,62.000 143.911 C 64.246 144.904,66.833 146.049,67.750 146.455 C 68.667 146.861,69.660 147.301,69.958 147.432 L 70.500 147.671 70.500 98.419 L 70.500 49.167 50.413 49.167 L 30.327 49.167 30.373 80.375 M72.333 98.415 L 72.333 147.664 73.375 147.262 C 75.061 146.613,79.125 144.929,80.833 144.173 C 81.704 143.787,82.829 143.297,83.333 143.083 C 100.363 135.861,110.782 124.945,112.400 112.634 C 112.735 110.086,112.729 110.741,112.696 78.042 L 112.667 49.167 92.500 49.167 L 72.333 49.167 72.333 98.415 M331.667 52.761 C 331.667 52.904,331.929 53.590,332.250 54.284 C 332.571 54.979,332.833 55.607,332.833 55.681 C 332.833 55.755,333.086 56.363,333.395 57.033 C 333.704 57.702,334.235 58.925,334.575 59.750 C 334.915 60.575,335.412 61.720,335.680 62.295 C 335.947 62.869,336.167 63.413,336.167 63.503 C 336.167 63.606,334.412 63.667,331.419 63.667 L 326.672 63.667 326.904 63.125 C 327.031 62.827,327.405 61.967,327.734 61.215 C 328.064 60.462,328.333 59.776,328.333 59.690 C 328.333 59.604,328.558 59.081,328.833 58.526 C 329.108 57.972,329.333 57.435,329.333 57.333 C 329.333 57.231,329.551 56.709,329.817 56.173 C 330.083 55.636,330.354 55.022,330.418 54.807 C 330.844 53.381,331.667 52.033,331.667 52.761 M95.832 63.458 C 95.831 63.619,95.680 64.237,95.496 64.833 C 94.739 67.288,94.000 70.426,94.000 71.187 C 94.000 72.105,93.897 72.156,92.878 71.749 L 92.250 71.497 92.250 69.457 C 92.250 67.664,92.202 67.310,91.852 66.537 C 91.378 65.487,91.469 65.304,92.172 65.896 C 92.962 66.560,93.249 66.475,93.575 65.478 C 94.099 63.875,95.837 62.320,95.832 63.458 M93.149 72.267 C 93.644 72.489,94.330 72.716,94.674 72.770 C 96.874 73.122,98.137 74.699,96.484 75.030 C 93.194 75.691,92.651 75.740,91.833 75.449 C 90.189 74.865,89.333 75.307,89.333 76.740 C 89.333 78.369,90.728 80.022,93.491 81.667 C 95.606 82.926,97.044 84.142,97.478 85.038 C 98.416 86.976,97.364 88.717,95.115 88.949 L 94.217 89.041 94.102 87.916 C 93.987 86.797,94.031 86.583,94.375 86.583 C 94.825 86.583,94.607 86.181,93.879 85.665 C 92.685 84.820,88.824 81.614,88.230 80.976 C 84.150 76.589,87.918 69.918,93.149 72.267 M93.782 77.350 C 93.664 78.762,93.648 78.763,95.011 77.333 C 96.261 76.023,96.949 75.759,96.750 76.667 C 96.626 77.231,96.911 77.312,97.959 77.012 C 99.337 76.616,98.453 77.604,96.605 78.525 C 95.171 79.239,93.833 80.370,93.833 80.868 C 93.833 81.325,93.389 81.225,92.761 80.625 L 92.193 80.083 92.084 78.083 L 91.975 76.083 92.927 76.142 L 93.879 76.200 93.782 77.350 M363.669 76.948 C 363.262 77.032,362.397 77.816,358.418 81.707 L 356.417 83.663 357.314 83.665 C 358.119 83.666,358.387 83.561,359.943 82.625 C 360.896 82.052,361.918 81.451,362.213 81.290 C 365.419 79.538,366.324 78.420,365.525 77.196 C 365.367 76.953,364.322 76.814,363.669 76.948 M192.797 78.395 C 191.783 80.271,190.651 80.609,188.583 79.654 C 184.525 77.780,181.573 77.888,180.434 79.953 C 179.156 82.272,179.116 82.500,179.986 82.500 C 180.557 82.500,180.687 82.424,181.011 81.899 C 182.003 80.294,182.673 80.312,187.417 82.062 C 190.672 83.264,194.167 81.295,194.167 78.260 C 194.167 77.808,193.055 77.917,192.797 78.395 M59.096 79.249 C 59.861 79.662,60.181 79.755,60.400 79.632 C 60.561 79.543,60.734 79.511,60.785 79.563 C 60.995 79.773,61.224 85.676,61.030 85.870 C 60.757 86.143,60.667 85.994,60.317 84.689 C 59.423 81.357,58.402 80.000,56.786 80.000 C 54.823 80.000,53.750 81.737,53.750 84.917 C 53.750 87.785,54.259 88.573,57.271 90.364 C 60.456 92.259,61.497 94.388,61.497 99.000 C 61.497 104.915,59.159 108.187,55.431 107.487 C 52.940 107.019,52.010 104.978,52.002 99.958 C 52.000 98.738,52.365 98.645,52.662 99.792 C 53.889 104.528,54.866 106.000,56.783 106.000 C 58.972 106.000,60.245 103.826,60.248 100.083 C 60.251 96.796,59.603 95.644,56.833 94.015 C 53.460 92.031,52.466 90.228,52.457 86.083 C 52.445 80.311,55.409 77.260,59.096 79.249 M35.894 79.501 C 36.071 79.669,36.368 80.467,36.586 81.357 C 36.797 82.215,37.848 86.367,38.922 90.583 C 39.997 94.800,41.018 98.840,41.191 99.562 C 41.740 101.849,41.749 101.840,42.755 97.917 C 42.966 97.092,43.488 95.104,43.915 93.500 C 44.341 91.896,44.905 89.758,45.167 88.750 C 45.429 87.742,45.993 85.604,46.421 84.000 C 46.848 82.396,47.293 80.725,47.409 80.287 C 47.675 79.283,47.653 79.302,48.768 79.151 C 50.201 78.956,50.762 79.602,49.741 80.271 C 48.653 80.984,48.643 81.128,48.822 93.500 C 48.985 104.767,49.000 104.939,49.907 105.795 C 50.528 106.380,50.642 106.722,50.292 106.948 C 49.982 107.149,46.004 107.121,45.980 106.918 C 45.933 106.514,46.057 106.251,46.507 105.801 C 47.205 105.102,47.217 104.922,47.137 95.769 C 47.049 85.709,47.011 85.547,45.832 90.083 C 45.570 91.092,44.741 94.242,43.991 97.083 C 43.241 99.925,42.446 102.998,42.225 103.912 C 41.399 107.323,41.226 107.176,39.912 101.956 C 36.377 87.904,36.267 87.493,36.116 87.763 C 36.031 87.916,35.953 91.662,35.940 96.309 C 35.914 105.578,35.875 105.265,37.135 106.008 C 38.406 106.758,37.879 107.085,35.417 107.074 C 32.918 107.063,32.594 106.831,33.643 105.805 C 34.583 104.887,34.732 103.554,35.010 93.573 C 35.269 84.270,34.978 81.443,33.661 80.469 C 33.085 80.044,33.003 79.861,33.176 79.393 C 33.350 78.928,35.377 79.008,35.894 79.501 M66.000 79.241 C 66.321 79.243,66.933 79.186,67.361 79.114 C 68.549 78.915,68.632 79.597,67.575 80.868 L 67.200 81.319 67.118 94.285 C 67.021 109.462,66.886 110.675,64.990 113.431 C 63.278 115.919,61.324 114.742,62.223 111.763 C 62.493 110.867,62.681 110.871,63.167 111.782 C 63.661 112.710,63.859 112.804,64.304 112.326 C 65.228 111.335,65.250 110.953,65.250 95.833 L 65.250 81.917 64.857 81.231 C 64.629 80.833,64.225 80.431,63.898 80.275 C 63.493 80.081,63.333 79.895,63.333 79.614 C 63.333 79.030,63.495 78.959,64.500 79.105 C 65.004 79.178,65.679 79.239,66.000 79.241 M92.955 85.667 L 93.827 86.250 93.830 87.875 C 93.833 89.207,93.878 89.500,94.083 89.500 C 94.397 89.500,94.427 90.485,94.125 90.865 C 93.938 91.100,93.831 91.087,93.061 90.741 L 92.205 90.356 92.097 88.470 C 92.037 87.432,91.946 86.218,91.893 85.772 C 91.785 84.863,91.758 84.865,92.955 85.667 M151.687 85.188 C 148.008 85.799,145.500 87.512,144.083 90.384 L 143.441 91.684 143.449 93.967 C 143.459 96.865,143.684 97.497,145.250 99.041 C 146.611 100.382,150.134 101.328,153.797 101.336 C 160.079 101.350,162.607 106.822,158.063 110.569 C 155.091 113.020,148.587 112.747,145.833 110.055 C 145.787 110.010,145.712 109.173,145.667 108.195 L 145.583 106.417 144.815 106.367 L 144.046 106.317 143.936 108.283 C 143.876 109.365,143.784 110.813,143.731 111.500 L 143.636 112.750 144.591 113.133 C 147.050 114.119,152.625 114.553,154.972 113.942 C 155.552 113.790,156.187 113.667,156.382 113.667 C 158.056 113.667,161.875 110.649,163.024 108.417 C 164.492 105.568,164.203 101.936,162.351 99.939 C 161.239 98.740,160.145 98.388,155.787 97.830 C 151.913 97.334,149.883 96.983,149.470 96.736 C 147.901 95.799,147.094 94.381,147.104 92.583 C 147.129 88.263,151.952 85.889,157.167 87.629 C 159.692 88.472,160.000 88.856,160.000 91.161 L 160.000 92.500 160.833 92.500 L 161.667 92.500 161.667 91.355 C 161.667 90.316,162.026 87.726,162.253 87.136 C 162.431 86.673,159.280 85.656,156.167 85.171 C 154.888 84.972,152.942 84.979,151.687 85.188 M221.833 85.243 C 221.054 85.371,220.206 85.556,219.947 85.654 C 219.689 85.753,219.314 85.834,219.114 85.836 C 217.663 85.845,211.833 89.917,211.833 90.921 C 211.833 91.028,211.693 91.242,211.521 91.398 C 210.974 91.893,209.846 94.717,209.571 96.281 C 208.848 100.396,209.605 105.306,211.364 107.900 C 211.619 108.276,211.830 108.658,211.834 108.750 C 211.860 109.409,214.808 111.871,216.785 112.886 C 220.097 114.585,227.051 114.634,230.392 112.982 C 230.929 112.717,231.433 112.500,231.512 112.500 C 232.084 112.500,236.333 109.043,236.333 108.578 C 236.333 108.498,236.544 108.204,236.801 107.925 C 240.356 104.066,240.855 95.617,237.795 91.111 C 234.605 86.413,228.463 84.155,221.833 85.243 M294.417 85.154 C 288.793 86.063,284.017 89.530,282.690 93.667 C 282.121 95.440,281.999 95.897,281.821 96.918 C 280.809 102.731,283.200 109.054,287.500 111.932 C 292.233 115.100,300.474 114.929,305.458 111.558 C 314.476 105.461,314.458 91.550,305.428 86.762 C 302.869 85.405,297.613 84.637,294.417 85.154 M327.556 85.163 C 322.265 86.292,319.583 89.263,319.583 93.998 C 319.583 99.058,322.961 101.333,330.474 101.333 C 334.678 101.333,337.172 104.138,336.188 107.760 C 335.038 111.993,327.660 113.685,323.092 110.763 C 321.935 110.022,321.824 109.793,321.711 107.901 L 321.618 106.333 320.918 106.333 L 320.218 106.333 320.108 108.792 C 320.048 110.144,319.953 111.555,319.898 111.929 L 319.797 112.608 320.834 113.057 C 323.047 114.017,328.316 114.465,330.917 113.914 C 331.558 113.778,332.239 113.667,332.429 113.667 C 332.815 113.667,335.530 112.372,336.149 111.892 C 336.743 111.433,338.225 109.974,338.417 109.662 C 338.508 109.512,338.752 109.133,338.958 108.820 C 340.643 106.255,340.473 101.983,338.607 99.985 C 337.312 98.599,336.414 98.320,331.167 97.671 C 325.474 96.967,324.296 96.444,323.607 94.311 C 321.915 89.070,327.257 85.526,333.600 87.681 C 335.819 88.435,336.060 88.728,336.167 90.802 L 336.250 92.417 337.042 92.467 L 337.833 92.518 337.839 91.634 C 337.842 91.148,337.918 90.225,338.008 89.583 C 338.098 88.942,338.216 88.042,338.270 87.583 L 338.369 86.750 337.393 86.369 C 334.623 85.287,329.766 84.691,327.556 85.163 M185.420 86.292 C 184.848 87.719,183.453 90.889,182.012 94.035 C 181.730 94.650,181.500 95.190,181.500 95.236 C 181.500 95.281,181.269 95.828,180.986 96.451 C 180.318 97.923,179.518 99.734,178.755 101.500 C 177.550 104.289,177.113 105.267,176.559 106.417 C 176.250 107.058,175.587 108.446,175.086 109.500 C 173.804 112.199,173.781 112.223,172.348 112.304 L 171.167 112.371 171.167 113.060 L 171.167 113.750 176.000 113.750 L 180.833 113.750 180.833 113.068 L 180.833 112.385 179.398 112.211 C 178.341 112.083,177.874 111.948,177.626 111.700 L 177.289 111.363 177.755 110.056 C 178.011 109.338,178.471 108.205,178.777 107.538 C 179.083 106.871,179.335 106.234,179.337 106.121 C 179.339 106.009,179.485 105.598,179.662 105.208 L 179.984 104.500 185.662 104.500 L 191.340 104.500 191.485 104.875 C 191.564 105.081,191.901 105.888,192.233 106.667 C 192.565 107.446,192.835 108.146,192.835 108.223 C 192.834 108.300,193.047 108.825,193.308 109.390 C 194.388 111.728,194.221 112.108,192.042 112.268 L 190.500 112.381 190.500 113.066 L 190.500 113.750 196.083 113.750 L 201.667 113.750 201.667 113.063 L 201.667 112.376 200.708 112.264 C 199.253 112.093,198.938 111.747,197.744 109.000 C 197.406 108.221,196.831 106.908,196.467 106.083 C 196.103 105.258,195.629 104.171,195.414 103.667 C 195.198 103.162,194.755 102.166,194.428 101.452 C 194.101 100.738,193.833 100.080,193.833 99.990 C 193.833 99.901,193.614 99.417,193.347 98.916 C 193.079 98.414,192.769 97.722,192.658 97.377 C 192.546 97.032,192.277 96.413,192.061 96.001 C 191.844 95.590,191.667 95.196,191.667 95.127 C 191.667 94.974,190.500 92.303,189.823 90.907 C 189.554 90.351,189.333 89.841,189.333 89.774 C 189.333 89.706,189.071 89.091,188.750 88.405 C 188.429 87.720,188.167 87.112,188.167 87.054 C 188.167 86.239,187.275 85.167,186.597 85.167 L 185.871 85.167 185.420 86.292 M261.833 86.276 L 261.833 86.968 263.412 87.026 C 264.790 87.076,265.040 87.132,265.371 87.463 L 265.750 87.843 265.750 102.380 C 265.750 116.620,265.743 116.928,265.417 117.472 C 264.829 118.452,263.431 118.754,261.788 118.255 C 260.553 117.880,260.500 117.946,260.500 119.868 L 260.500 121.533 261.965 121.475 C 264.511 121.374,267.928 118.672,268.926 115.970 C 270.006 113.049,269.901 114.561,269.996 100.547 C 270.093 86.389,269.992 87.454,271.268 87.158 C 271.625 87.076,272.348 87.006,272.875 87.004 L 273.833 87.000 273.833 86.292 L 273.833 85.583 267.833 85.583 L 261.833 85.583 261.833 86.276 M347.700 86.236 L 347.750 86.917 349.000 87.038 C 351.871 87.316,351.916 87.554,351.789 102.000 C 351.698 112.459,351.770 112.146,349.418 112.297 L 348.167 112.377 348.167 113.064 L 348.168 113.750 357.959 113.743 C 363.344 113.739,368.252 113.721,368.865 113.702 L 369.979 113.667 369.888 113.106 C 369.804 112.587,370.247 107.800,370.442 107.116 C 370.519 106.848,370.429 106.821,369.641 106.866 L 368.753 106.917 368.636 107.750 C 368.356 109.749,367.829 111.135,367.271 111.341 C 366.638 111.575,359.119 111.764,357.280 111.591 L 356.000 111.472 356.000 105.902 L 356.000 100.333 359.755 100.333 C 364.828 100.333,365.167 100.500,365.167 102.992 L 365.167 104.167 365.958 104.167 L 366.750 104.167 366.750 99.417 L 366.750 94.667 365.979 94.667 L 365.208 94.667 365.134 96.089 C 365.029 98.085,365.063 98.062,362.036 98.174 C 360.687 98.223,358.777 98.231,357.792 98.192 L 356.000 98.119 356.000 92.911 L 356.000 87.704 358.042 87.578 C 361.991 87.335,366.600 87.700,367.205 88.305 C 367.275 88.375,367.381 89.235,367.442 90.216 L 367.551 92.000 368.095 92.000 C 369.062 92.000,369.167 91.889,369.167 90.857 C 369.168 90.340,369.320 88.995,369.507 87.869 C 369.693 86.743,369.801 85.750,369.747 85.663 C 369.687 85.564,365.468 85.514,358.650 85.530 L 347.650 85.555 347.700 86.236 M91.719 88.364 C 91.799 89.323,91.767 89.630,91.563 89.856 C 91.219 90.236,91.633 90.507,93.835 91.342 C 96.439 92.329,97.000 92.889,97.000 94.500 C 97.000 95.812,95.983 97.183,94.672 97.640 L 94.213 97.800 94.110 96.452 C 94.028 95.390,94.058 95.046,94.251 94.833 C 94.537 94.517,94.300 94.167,93.801 94.167 C 93.076 94.167,90.429 92.926,89.741 92.264 C 88.098 90.682,88.427 88.538,90.477 87.467 C 91.586 86.888,91.596 86.895,91.719 88.364 M227.778 87.634 C 234.841 89.987,237.709 100.380,233.344 107.809 C 230.752 112.220,224.198 113.662,219.614 110.829 C 219.172 110.557,218.771 110.333,218.723 110.333 C 218.579 110.333,216.167 107.780,216.167 107.627 C 216.167 107.550,216.017 107.283,215.835 107.035 C 214.130 104.716,213.221 99.116,213.913 95.187 C 215.018 88.909,221.312 85.480,227.778 87.634 M300.250 87.639 C 306.017 89.680,308.891 96.471,307.213 104.086 C 304.998 114.141,292.102 115.285,287.570 105.829 C 282.301 94.834,289.876 83.967,300.250 87.639 M185.940 91.792 C 186.003 92.044,186.304 92.794,186.610 93.459 C 186.916 94.124,187.167 94.721,187.167 94.785 C 187.167 94.849,187.429 95.486,187.750 96.201 C 188.972 98.922,189.475 100.097,189.590 100.500 C 189.656 100.729,189.889 101.273,190.108 101.708 L 190.506 102.500 185.753 102.500 C 183.139 102.500,181.000 102.479,181.000 102.453 C 181.000 102.267,181.760 100.303,182.073 99.681 C 182.284 99.261,182.513 98.729,182.582 98.500 C 182.698 98.117,183.059 97.260,184.338 94.333 C 184.598 93.737,184.980 92.819,185.186 92.292 C 185.604 91.226,185.773 91.113,185.940 91.792 M92.981 94.490 L 93.615 94.814 93.724 96.349 C 93.878 98.513,93.860 100.000,93.679 100.000 C 93.518 100.000,92.504 99.209,92.294 98.919 C 92.155 98.727,92.119 94.167,92.257 94.167 C 92.306 94.167,92.632 94.312,92.981 94.490 M91.560 96.923 C 91.620 97.706,91.623 98.532,91.566 98.759 C 91.431 99.298,91.603 99.484,93.225 100.554 C 96.536 102.739,97.346 105.636,94.984 106.842 C 94.135 107.274,94.168 107.299,94.157 106.208 C 94.142 104.652,93.925 104.295,92.261 103.090 C 88.984 100.716,88.189 99.544,88.674 97.799 C 88.928 96.882,90.402 95.623,91.350 95.512 C 91.406 95.505,91.500 96.141,91.560 96.923 M92.911 104.392 C 93.546 104.954,93.828 106.630,93.832 109.865 C 93.834 111.161,93.695 111.315,92.944 110.850 C 91.883 110.195,91.883 110.194,91.789 106.812 C 91.691 103.307,91.689 103.311,92.911 104.392 M91.500 107.417 C 91.500 108.279,91.425 109.027,91.333 109.083 C 90.157 109.810,93.524 112.049,96.890 112.778 C 98.544 113.136,96.847 113.538,94.615 113.316 C 92.308 113.088,90.124 112.120,89.262 110.946 C 88.293 109.626,89.021 106.930,90.582 106.054 C 91.461 105.561,91.500 105.619,91.500 107.417 M93.125 113.717 L 93.833 113.889 93.828 114.820 C 93.813 117.141,93.174 119.157,92.603 118.683 C 92.004 118.186,91.523 113.169,92.098 113.411 C 92.273 113.484,92.735 113.622,93.125 113.717 " stroke="none" fill="#042464" fill-rule="evenodd"></path><path id="path2" d="M50.374 49.125 L 70.498 49.168 70.542 66.542 L 70.585 83.917 70.626 66.542 L 70.667 49.168 87.292 49.125 C 96.435 49.101,87.342 49.082,67.083 49.082 C 46.825 49.082,39.306 49.101,50.374 49.125 M72.208 100.125 C 72.185 126.365,72.223 147.833,72.292 147.833 C 72.405 147.833,72.404 115.817,72.291 69.667 C 72.268 60.179,72.230 73.885,72.208 100.125 M30.247 92.250 C 30.247 101.600,30.267 105.401,30.292 100.696 C 30.316 95.991,30.316 88.341,30.292 83.696 C 30.267 79.051,30.247 82.900,30.247 92.250 M92.205 79.167 C 92.205 79.487,92.240 79.619,92.282 79.458 C 92.323 79.298,92.323 79.035,92.282 78.875 C 92.240 78.715,92.205 78.846,92.205 79.167 M35.042 94.583 C 35.044 94.950,35.078 95.080,35.118 94.873 C 35.158 94.666,35.156 94.366,35.115 94.206 C 35.073 94.047,35.040 94.217,35.042 94.583 M93.492 95.379 C 93.573 96.066,93.576 96.069,93.633 95.520 C 93.665 95.211,93.627 94.894,93.550 94.816 C 93.472 94.739,93.446 94.992,93.492 95.379 M48.734 97.500 C 48.734 98.921,48.759 99.502,48.791 98.792 C 48.822 98.081,48.822 96.919,48.791 96.208 C 48.759 95.498,48.734 96.079,48.734 97.500 M35.712 97.333 C 35.712 97.746,35.745 97.915,35.784 97.708 C 35.824 97.502,35.824 97.165,35.784 96.958 C 35.745 96.752,35.712 96.921,35.712 97.333 M47.224 99.417 C 47.224 100.150,47.254 100.429,47.289 100.037 C 47.324 99.645,47.324 99.045,47.288 98.704 C 47.252 98.363,47.223 98.683,47.224 99.417 M112.709 110.583 C 112.711 110.950,112.745 111.080,112.785 110.873 C 112.824 110.666,112.823 110.366,112.781 110.206 C 112.739 110.047,112.707 110.217,112.709 110.583 M91.879 114.167 C 91.879 114.579,91.911 114.748,91.951 114.542 C 91.991 114.335,91.991 113.998,91.951 113.792 C 91.911 113.585,91.879 113.754,91.879 114.167 M103.161 130.458 L 102.250 131.417 103.208 130.506 C 104.099 129.659,104.243 129.500,104.119 129.500 C 104.093 129.500,103.662 129.931,103.161 130.458 " stroke="none" fill="#849cb4" fill-rule="evenodd"></path><path id="path3" d="M72.228 50.833 C 72.228 51.796,72.256 52.190,72.290 51.708 C 72.323 51.227,72.323 50.440,72.290 49.958 C 72.256 49.477,72.228 49.871,72.228 50.833 M47.227 102.167 C 47.227 103.037,47.255 103.394,47.289 102.958 C 47.324 102.523,47.324 101.810,47.289 101.375 C 47.255 100.940,47.227 101.296,47.227 102.167 " stroke="none" fill="#7595b4" fill-rule="evenodd"></path><path id="path4" d="M108.291 49.123 L 112.666 49.172 112.709 77.961 L 112.751 106.750 112.751 77.917 L 112.750 49.083 108.333 49.079 L 103.917 49.075 108.291 49.123 M30.246 62.250 C 30.246 69.492,30.267 72.430,30.292 68.779 C 30.317 65.129,30.317 59.204,30.292 55.613 C 30.267 52.022,30.246 55.008,30.246 62.250 M92.383 69.333 C 92.383 69.837,92.415 70.044,92.453 69.792 C 92.491 69.540,92.491 69.127,92.453 68.875 C 92.415 68.623,92.383 68.829,92.383 69.333 M93.875 71.417 C 93.877 71.783,93.911 71.914,93.951 71.706 C 93.991 71.499,93.990 71.199,93.948 71.040 C 93.906 70.880,93.874 71.050,93.875 71.417 M86.545 76.667 C 86.545 77.079,86.578 77.248,86.618 77.042 C 86.657 76.835,86.657 76.498,86.618 76.292 C 86.578 76.085,86.545 76.254,86.545 76.667 M92.627 76.285 C 92.834 76.324,93.134 76.323,93.294 76.281 C 93.453 76.239,93.283 76.207,92.917 76.209 C 92.550 76.211,92.420 76.245,92.627 76.285 M94.406 79.875 L 93.917 80.417 94.458 79.927 C 94.756 79.658,95.000 79.414,95.000 79.385 C 95.000 79.257,94.862 79.370,94.406 79.875 M56.460 79.951 C 56.668 79.991,56.968 79.990,57.127 79.948 C 57.286 79.906,57.117 79.874,56.750 79.875 C 56.383 79.877,56.253 79.911,56.460 79.951 M67.079 93.167 C 67.079 99.263,67.099 101.756,67.125 98.708 C 67.150 95.660,67.150 90.673,67.125 87.625 C 67.099 84.577,67.079 87.071,67.079 93.167 M61.045 83.833 C 61.045 84.246,61.078 84.415,61.118 84.208 C 61.157 84.002,61.157 83.665,61.118 83.458 C 61.078 83.252,61.045 83.421,61.045 83.833 M96.167 83.552 C 96.167 83.581,96.410 83.825,96.708 84.094 L 97.250 84.583 96.760 84.042 C 96.304 83.537,96.167 83.423,96.167 83.552 M70.582 115.833 C 70.582 133.387,70.601 140.569,70.625 131.792 C 70.649 123.015,70.649 108.652,70.625 99.875 C 70.601 91.098,70.582 98.279,70.582 115.833 M53.545 84.833 C 53.545 85.246,53.578 85.415,53.618 85.208 C 53.657 85.002,53.657 84.665,53.618 84.458 C 53.578 84.252,53.545 84.421,53.545 84.833 M35.042 85.250 C 35.044 85.617,35.078 85.747,35.118 85.540 C 35.158 85.332,35.156 85.032,35.115 84.873 C 35.073 84.714,35.040 84.883,35.042 85.250 M52.387 86.000 C 52.387 86.596,52.417 86.840,52.454 86.542 C 52.491 86.244,52.491 85.756,52.454 85.458 C 52.417 85.160,52.387 85.404,52.387 86.000 M93.723 88.000 C 93.723 88.688,93.752 88.969,93.788 88.625 C 93.824 88.281,93.824 87.719,93.788 87.375 C 93.752 87.031,93.723 87.313,93.723 88.000 M48.737 90.750 C 48.737 92.675,48.762 93.440,48.791 92.449 C 48.821 91.459,48.821 89.884,48.791 88.949 C 48.761 88.015,48.737 88.825,48.737 90.750 M47.055 89.250 C 47.055 89.892,47.086 90.134,47.122 89.788 C 47.158 89.442,47.157 88.917,47.120 88.621 C 47.083 88.325,47.054 88.608,47.055 89.250 M35.060 92.167 C 35.060 93.037,35.088 93.394,35.123 92.958 C 35.157 92.523,35.157 91.810,35.123 91.375 C 35.088 90.940,35.060 91.296,35.060 92.167 M35.881 91.750 C 35.882 92.208,35.915 92.376,35.953 92.123 C 35.991 91.869,35.990 91.494,35.951 91.289 C 35.911 91.084,35.880 91.292,35.881 91.750 M93.724 98.083 C 93.724 98.817,93.754 99.096,93.789 98.704 C 93.824 98.312,93.824 97.712,93.788 97.371 C 93.752 97.029,93.723 97.350,93.724 98.083 M91.545 98.000 C 91.545 98.412,91.578 98.581,91.618 98.375 C 91.657 98.169,91.657 97.831,91.618 97.625 C 91.578 97.419,91.545 97.587,91.545 98.000 M35.733 100.750 C 35.734 102.125,35.759 102.665,35.791 101.951 C 35.822 101.236,35.822 100.111,35.790 99.451 C 35.759 98.790,35.733 99.375,35.733 100.750 M48.875 102.917 C 48.877 103.283,48.911 103.414,48.951 103.206 C 48.991 102.999,48.990 102.699,48.948 102.540 C 48.906 102.380,48.874 102.550,48.875 102.917 M91.332 107.383 L 91.414 109.083 91.464 107.515 C 91.491 106.652,91.454 105.887,91.382 105.814 C 91.309 105.741,91.287 106.447,91.332 107.383 M93.539 106.333 C 93.539 106.654,93.573 106.785,93.615 106.625 C 93.657 106.465,93.657 106.202,93.615 106.042 C 93.573 105.881,93.539 106.013,93.539 106.333 M112.721 108.917 C 112.722 109.558,112.752 109.800,112.788 109.455 C 112.824 109.109,112.824 108.584,112.787 108.288 C 112.750 107.992,112.721 108.275,112.721 108.917 M93.727 109.500 C 93.727 110.371,93.755 110.727,93.789 110.292 C 93.824 109.856,93.824 109.144,93.789 108.708 C 93.755 108.273,93.727 108.629,93.727 109.500 M91.667 110.417 C 91.978 110.737,92.270 111.000,92.315 111.000 C 92.361 111.000,92.144 110.737,91.833 110.417 C 91.522 110.096,91.230 109.833,91.185 109.833 C 91.139 109.833,91.356 110.096,91.667 110.417 M89.167 110.885 C 89.167 110.914,89.410 111.158,89.708 111.427 L 90.250 111.917 89.760 111.375 C 89.304 110.870,89.167 110.757,89.167 110.885 M62.052 113.250 C 62.053 113.800,62.084 114.005,62.121 113.705 C 62.158 113.406,62.157 112.956,62.119 112.705 C 62.081 112.455,62.051 112.700,62.052 113.250 M93.709 115.417 C 93.711 115.783,93.745 115.914,93.785 115.706 C 93.824 115.499,93.823 115.199,93.781 115.040 C 93.739 114.880,93.707 115.050,93.709 115.417 " stroke="none" fill="#6d8bac" fill-rule="evenodd"></path></g></svg>