<svg xmlns="http://www.w3.org/2000/svg" fill="none" viewBox="0 0 144 54"><path fill="#fff" fill-rule="evenodd" d="M18.65 35.1 7.96 30.8.25 35.1l7.78 4.42 10.62-4.42Z" clip-rule="evenodd"/><path stroke="#fff" stroke-miterlimit="10" d="M18.65 35.1 14.2 24.55 5.62 22.2l2.34 8.6 10.69 4.29Z" clip-rule="evenodd"/><path fill="#fff" fill-rule="evenodd" d="m18.65 35.1 4.32-10.55-4.32-7.68-4.45 7.68 4.45 10.55Z" clip-rule="evenodd"/><path stroke="#fff" stroke-miterlimit="10" d="m18.65 35.1 10.61-4.42 2.35-8.47-8.64 2.34-4.32 10.55Z" clip-rule="evenodd"/><path fill="#fff" fill-rule="evenodd" d="m18.65 35.1 10.61 4.36 7.72-4.36-7.72-4.42-10.61 4.42Z" clip-rule="evenodd"/><path stroke="#fff" stroke-miterlimit="10" d="m18.65 35.1 4.44 10.56 8.52 2.39-2.35-8.6-10.61-4.35Z" clip-rule="evenodd"/><path fill="#fff" fill-rule="evenodd" d="m18.65 35.1-4.39 10.62 4.39 7.67 4.44-7.73-4.44-10.56Z" clip-rule="evenodd"/><path stroke="#fff" stroke-miterlimit="10" d="M18.65 35.1 8.03 39.52l-2.41 8.53 8.64-2.33 4.39-10.62Z" clip-rule="evenodd"/><path fill="#fff" d="M56.43 1.1v3.32h-.25c-.3-.86-.8-1.6-1.42-2.03-.61-.49-1.3-.67-2.03-.67-.68 0-1.3.18-1.73.61-.5.37-.8.92-1 1.66a8.2 8.2 0 0 0 0 4.48c.2.67.56 1.16 1.06 1.47.5.3 1.05.5 1.67.5.24 0 .43 0 .67-.07l.75-.18v-1.9c0-.37 0-.62-.07-.74-.06-.13-.18-.19-.3-.3-.19-.07-.38-.13-.56-.13h-.25v-.37h4.57V7c-.37 0-.62.06-.74.12a.63.63 0 0 0-.3.37c-.07.06-.07.3-.07.67v1.9c-.62.25-1.24.5-1.85.62-.68.12-1.3.18-2.04.18-.86 0-1.6-.12-2.22-.37a6.42 6.42 0 0 1-1.55-.92 4.44 4.44 0 0 1-1.54-3.5 5.09 5.09 0 0 1 5.25-5.03c.5 0 .86 0 1.23.13.19 0 .56.12 1 .3.42.19.73.25.8.25.12 0 .24-.06.36-.12.13-.13.19-.25.31-.56h.25v.06ZM65.32 6.44v2.64c0 .5 0 .8.12.92.07.12.19.25.31.3.19.07.43.13.87.13v.25H61.8v-.25c.43 0 .74-.06.87-.12.18-.06.24-.19.3-.3.07-.13.13-.44.13-.93V2.94c0-.49 0-.8-.13-.98a.74.74 0 0 0-.3-.3 2.57 2.57 0 0 0-.87-.13V1.3h4.38c1.12 0 1.98.06 2.47.24.56.19.93.43 1.3.86.3.43.5.92.5 1.48 0 .67-.25 1.22-.75 1.71-.3.31-.74.5-1.35.68l2.28 3.13c.3.43.5.67.62.73.18.13.43.25.68.25v.25h-2.97l-3.02-4.24h-.62v.06Zm0-4.6v4.05h.37c.62 0 1.11-.06 1.42-.18.3-.13.56-.37.74-.62.19-.3.25-.67.25-1.22 0-.68-.19-1.23-.5-1.6-.37-.37-.86-.5-1.6-.5h-.68v.07ZM76 1.35h4.88v.24h-.25c-.37 0-.62.07-.74.13a.74.74 0 0 0-.3.3c-.07.13-.07.5-.07 1.05V7.6c0 .86.06 1.41.19 1.66.12.24.37.49.61.67.31.18.68.25 1.11.25a2.3 2.3 0 0 0 2.1-1.3c.19-.36.25-1.1.25-2.08v-3.8c0-.43-.06-.74-.12-.92a.55.55 0 0 0-.37-.37c-.19-.13-.5-.19-.87-.19V1.3h3.27v.24h-.18c-.25 0-.5.06-.68.19a.76.76 0 0 0-.37.49c-.06.18-.06.43-.06.8v3.56c0 1.1-.06 1.9-.19 2.39a3 3 0 0 1-1.05 1.35c-.55.43-1.36.61-2.28.61-.8 0-1.42-.12-1.85-.3a2.94 2.94 0 0 1-1.3-1.1c-.25-.5-.37-1.11-.37-1.85V3.13c0-.55 0-.86-.06-1.04a.74.74 0 0 0-.31-.31 2.43 2.43 0 0 0-.8-.12v-.31H76ZM93.66 6.44v2.58c0 .5 0 .86.12.98.06.12.19.25.31.3.19.07.43.13.86.13v.25h-4.81v-.25c.43 0 .74-.06.86-.12.19-.06.25-.19.31-.3.06-.13.13-.44.13-.99V2.94c0-.49 0-.85-.13-.98a.74.74 0 0 0-.3-.3 2.57 2.57 0 0 0-.87-.13V1.3h4.07c1.36 0 2.35.24 2.9.73.56.5.87 1.05.87 1.78 0 .62-.19 1.1-.56 1.6-.37.43-.92.74-1.6.86-.37.12-1.11.18-2.16.18Zm0-4.54v4.05h.37c.55 0 .99-.18 1.3-.49.3-.3.43-.86.43-1.53 0-.68-.19-1.23-.43-1.54-.31-.3-.75-.49-1.36-.49h-.31ZM107.86 1.23a4.68 4.68 0 0 1 3.64 1.29 4.75 4.75 0 0 1 1.42 3.5c0 1.16-.37 2.2-1.05 3.12a4.54 4.54 0 0 1-3.89 1.78 4.87 4.87 0 0 1-3.95-1.72 4.9 4.9 0 0 1-1.11-3.19c0-1.4.5-2.51 1.42-3.5a4.49 4.49 0 0 1 3.52-1.28Zm.06.43c-.86 0-1.54.43-1.98 1.29A6.65 6.65 0 0 0 105.4 6c0 1.6.3 2.77.86 3.5.37.55.93.8 1.67.8.5 0 .86-.12 1.17-.37.44-.3.74-.8.93-1.41.25-.68.37-1.47.37-2.52a7.8 7.8 0 0 0-.37-2.76 3.13 3.13 0 0 0-.86-1.29c-.31-.24-.75-.3-1.24-.3Z"/><path fill="#fff" fill-rule="evenodd" d="M52.1 25.4v3.69a5 5 0 0 0 .13 1.35c.06.18.25.3.5.43.24.12.61.18 1.23.18v.37h-6.8v-.37c.63 0 1.06-.06 1.24-.18.25-.13.37-.25.44-.43a5 5 0 0 0 .12-1.35v-8.53a5 5 0 0 0-.12-1.35c-.07-.19-.25-.31-.5-.43a2.86 2.86 0 0 0-1.23-.19v-.37h6.17c1.6 0 2.78.13 3.52.31.74.25 1.36.61 1.79 1.23.5.61.68 1.29.68 2.08a3.1 3.1 0 0 1-1.05 2.4c-.43.43-1.05.67-1.91.92l3.2 4.48c.44.55.75.92.87 1.1.25.19.56.3.93.3v.38h-4.2l-4.26-6.02h-.74Zm0-6.44v5.77h.56c.93 0 1.6-.06 2.04-.25.43-.18.8-.49 1.05-.92.25-.43.37-.98.37-1.65 0-.99-.25-1.72-.74-2.21-.5-.5-1.23-.74-2.28-.74h-1ZM67 30.06c-1.11.99-2.1 1.48-3.03 1.48a2 2 0 0 1-1.3-.5c-.37-.3-.49-.73-.49-1.28 0-.67.31-1.29.93-1.84.61-.55 1.91-1.29 3.89-2.2v-.93c0-.67-.06-1.1-.13-1.29-.06-.18-.24-.3-.43-.49a1.25 1.25 0 0 0-.68-.18c-.43 0-.8.12-1.05.3-.18.13-.24.25-.24.43 0 .13.12.31.24.5.25.3.37.55.37.8 0 .3-.12.6-.37.79-.24.24-.55.3-.92.3-.44 0-.74-.12-1.05-.36-.25-.25-.44-.55-.44-.86a2 2 0 0 1 .56-1.35c.37-.43.86-.74 1.54-.98a6 6 0 0 1 2.1-.31c.87 0 1.55.18 2.04.55.5.37.8.74.99 1.17.12.24.12.92.12 1.9v3.5c0 .43 0 .67.06.8.07.12.07.18.13.24s.12.06.24.06c.19 0 .37-.12.5-.37l.3.25c-.3.5-.67.86-.98 1.04-.37.25-.74.31-1.17.31-.5 0-.93-.12-1.24-.37a1.85 1.85 0 0 1-.5-1.1Zm0-.67v-3.07c-.8.43-1.36.92-1.73 1.48a1.8 1.8 0 0 0-.37 1.04c0 .3.12.55.3.8.2.18.38.24.69.24.3.06.67-.12 1.1-.49Zm9.13 2.4-2.96-6.75a7 7 0 0 0-.99-1.9c-.18-.25-.5-.37-.74-.5v-.37h4.88v.37c-.3 0-.56.06-.68.19-.12.12-.18.24-.18.36 0 .25.18.74.49 1.48l1.54 3.56 1.05-2.76c.37-.99.56-1.66.56-2.03 0-.25-.06-.43-.25-.55a1.45 1.45 0 0 0-.86-.25v-.37h3.08v.37c-.3.06-.55.13-.74.37-.18.18-.5.86-.92 2.03l-2.6 6.75a19.46 19.46 0 0 1-1.48 3.13 2 2 0 0 1-1.67.8c-.55 0-.98-.13-1.3-.5-.3-.3-.49-.67-.49-1.1 0-.37.13-.68.37-.92.25-.25.5-.37.87-.37.3 0 .62.12.8.3.19.19.31.56.31.99 0 .24.06.43.06.49.06.06.13.12.25.12.18 0 .3-.12.5-.3.24-.25.55-.93.92-1.85l.18-.8Zm9.64-9.45v1.16c.49-.55.98-.92 1.42-1.16.43-.25.86-.31 1.42-.31.61 0 1.05.12 1.48.43.37.24.68.67.92 1.23.5-.62 1.05-.99 1.49-1.3.49-.24.98-.36 1.48-.36.61 0 1.1.12 1.48.43.37.3.62.67.8 1.1.12.43.25 1.17.25 2.15v3.74c0 .68.06 1.1.18 1.3.13.18.37.3.8.3v.37H92.8v-.37c.37-.06.62-.18.8-.43.13-.18.2-.55.2-1.23v-3.92c0-.8-.07-1.35-.13-1.54-.06-.24-.19-.37-.31-.49a.7.7 0 0 0-.5-.18c-.3 0-.55.12-.86.3-.3.19-.55.5-.86.92v4.85c0 .68.06 1.04.18 1.23.13.24.43.37.87.43v.37h-4.76v-.37c.25 0 .43-.06.62-.19.12-.12.25-.24.3-.43.07-.18.07-.49.07-1.04V25.4c0-.8-.06-1.35-.12-1.53a1.33 1.33 0 0 0-.31-.5.7.7 0 0 0-.5-.18c-.24 0-.49.07-.74.19-.3.18-.61.55-.98 1.04v4.85c0 .61.06 1.04.18 1.29.12.18.37.3.8.37v.36h-4.69v-.36c.37-.06.68-.19.8-.37.13-.12.19-.55.19-1.29v-5.15c0-.68-.06-1.1-.19-1.3-.12-.18-.37-.3-.8-.3v-.37h3.7v.19Zm21.67 0v7.11c0 .68.06 1.1.18 1.3.13.18.37.3.8.3v.37h-3.7v-1.23c-.43.5-.86.92-1.3 1.1-.43.25-.92.37-1.48.37-.5 0-.99-.18-1.36-.49-.37-.3-.68-.67-.8-1.1a9.04 9.04 0 0 1-.18-2.21v-3.62c0-.68-.07-1.1-.19-1.29-.12-.18-.37-.3-.8-.3v-.38h3.7v6.2c0 .68 0 1.05.13 1.23.06.18.18.3.3.43.13.12.31.12.5.12.24 0 .43-.06.61-.18.25-.19.56-.5.93-1.05v-4.84c0-.68-.06-1.1-.18-1.3-.13-.18-.37-.3-.8-.3v-.37h3.64v.13Zm6.05 0v1.16c.49-.49.92-.86 1.35-1.1.44-.25.87-.37 1.36-.37.62 0 1.11.18 1.48.49.38.3.68.74.8 1.23.13.37.2 1.1.2 2.14v3.56c0 .68.05 1.17.18 1.3.12.18.37.3.8.3v.37h-4.63v-.37c.37-.06.62-.18.74-.43.12-.18.19-.55.19-1.23v-4.05c0-.73 0-1.22-.07-1.4-.06-.2-.18-.38-.3-.44a.7.7 0 0 0-.5-.18c-.55 0-1.05.37-1.54 1.22v4.85c0 .68.06 1.1.18 1.3.13.18.37.3.74.36v.37h-4.63v-.37c.37-.06.68-.18.8-.37.13-.12.2-.55.2-1.29v-5.15c0-.68-.07-1.1-.2-1.29-.12-.18-.36-.3-.8-.3v-.38h3.65v.07Zm16.23-4.12v10.44a5 5 0 0 0 .07 1.22c.06.19.12.37.3.5.13.12.44.18.74.18v.3l-3.82.74V30.2c-.5.55-.87.92-1.24 1.17a3.13 3.13 0 0 1-4.01-1.23c-.56-.86-.8-1.9-.8-3.07 0-.98.18-1.84.5-2.64a3.75 3.75 0 0 1 3.33-2.4c.43 0 .8.07 1.17.25.3.19.68.5 1.1.86v-2.76c0-.67 0-1.1-.05-1.23-.06-.18-.19-.3-.37-.42a2.57 2.57 0 0 0-.87-.13v-.43h3.95v.06Zm-2.71 6.2c-.5-.92-1.05-1.35-1.8-1.35-.24 0-.42.06-.61.19-.25.18-.43.55-.62 1.04a9.9 9.9 0 0 0-.25 2.33c0 1.17.07 1.96.25 2.52.19.55.37.92.68 1.16.13.13.37.19.62.19.55 0 1.11-.43 1.6-1.35v-4.73h.13Zm9.26-2.33a4.05 4.05 0 0 1 3.76 2.33c.38.74.56 1.6.56 2.46 0 1.29-.3 2.39-.99 3.25a3.96 3.96 0 0 1-3.27 1.6c-1.36 0-2.4-.5-3.15-1.42a5.36 5.36 0 0 1-1.11-3.31c0-1.29.37-2.46 1.11-3.38a3.57 3.57 0 0 1 3.09-1.53Zm.06.68c-.3 0-.62.12-.86.36-.25.25-.38.74-.5 1.48-.06.73-.12 1.78-.12 3.06 0 .68.06 1.35.12 1.97.06.43.25.8.43 1.04.25.25.5.37.8.37.31 0 .56-.06.75-.25.24-.24.43-.55.5-.92.12-.61.18-1.84.18-3.74 0-1.1-.06-1.84-.19-2.27-.12-.43-.3-.74-.55-.92-.07-.12-.31-.18-.56-.18ZM56 38.54v10.43c0 .74 0 1.1.06 1.23.06.18.12.36.3.49.13.12.44.18.75.18v.3l-3.83.74v-1.4c-.5.55-.86.91-1.23 1.16a3.13 3.13 0 0 1-4.01-1.23c-.56-.86-.81-1.9-.81-3.07 0-.98.19-1.84.5-2.64.3-.8.8-1.35 1.35-1.77a3.71 3.71 0 0 1 1.92-.62c.43 0 .8.06 1.17.25.3.18.68.49 1.11.86v-2.77c0-.67 0-1.1-.06-1.22-.06-.19-.19-.3-.37-.43a2.57 2.57 0 0 0-.87-.12v-.43H56v.06Zm-2.78 6.13c-.5-.92-1.05-1.35-1.8-1.35-.24 0-.42.06-.6.19-.26.18-.44.55-.63 1.04-.12.5-.24 1.29-.24 2.33 0 1.17.06 1.97.24 2.52.19.55.37.92.68 1.16.13.13.37.19.62.19.56 0 1.11-.43 1.6-1.35v-4.73h.13Zm10.06 5.71c-1.1.98-2.1 1.47-3.02 1.47a2 2 0 0 1-1.3-.49c-.37-.37-.5-.73-.5-1.29 0-.67.32-1.29.93-1.84.62-.55 1.92-1.29 3.9-2.2v-.93c0-.67-.07-1.1-.13-1.29-.06-.18-.19-.3-.43-.49a1.25 1.25 0 0 0-.68-.18c-.43 0-.8.12-1.05.3-.19.13-.25.25-.25.44 0 .12.12.3.25.49.25.3.37.55.37.8 0 .3-.12.6-.37.8-.25.24-.56.3-.93.3-.43 0-.74-.12-1.05-.37-.24-.24-.43-.55-.43-.86a2 2 0 0 1 .56-1.35c.37-.43.86-.73 1.54-.98a6 6 0 0 1 2.1-.3c.86 0 1.54.18 2.04.55.49.36.8.73.98 1.16.13.25.13.92.13 1.9v3.5c0 .43 0 .68.06.8s.06.18.12.24c.06.07.13.07.25.07.18 0 .37-.13.5-.37l.3.24c-.3.5-.68.86-.99 1.05-.37.24-.74.3-1.17.3-.5 0-.92-.12-1.23-.37a1.85 1.85 0 0 1-.5-1.1Zm0-.74v-3.06c-.8.43-1.36.92-1.73 1.47a1.8 1.8 0 0 0-.37 1.04c0 .3.13.55.31.8.19.18.37.24.68.24.31.07.68-.12 1.11-.49Zm14.76-10.37v5.4h.37c.55 0 1.05-.06 1.42-.24.37-.19.68-.5.92-.86.25-.43.44-.98.5-1.66h.3v6.57h-.3c-.12-1.23-.43-2.09-.99-2.46a3.34 3.34 0 0 0-1.85-.61h-.37v4.05c0 .67.06 1.1.12 1.29.06.18.25.3.43.43.25.12.5.18.87.18h.43v.37h-6.91v-.37h.43c.37 0 .68-.06.92-.18.19-.06.31-.25.37-.5.07-.12.13-.55.13-1.22v-8.65c0-.68-.06-1.1-.13-1.3-.06-.18-.24-.3-.43-.42a1.8 1.8 0 0 0-.86-.18h-.43v-.37h11.17v3.8h-.37a3.37 3.37 0 0 0-.68-1.96 3.17 3.17 0 0 0-1.6-.92c-.37-.13-1.12-.13-2.17-.13h-1.3v-.06Zm11.73 3.07a4.05 4.05 0 0 1 3.76 2.33c.38.74.56 1.6.56 2.46 0 1.29-.3 2.4-.99 3.25a3.96 3.96 0 0 1-3.27 1.6c-1.36 0-2.4-.5-3.15-1.42a5.36 5.36 0 0 1-1.11-3.3c0-1.3.37-2.46 1.11-3.38.68-1.05 1.73-1.54 3.09-1.54Zm0 .68c-.31 0-.62.12-.87.36-.24.25-.37.74-.49 1.48-.06.73-.12 1.78-.12 3.07 0 .67.06 1.35.12 1.96.06.43.25.8.43 1.04.25.25.5.37.8.37.31 0 .56-.06.75-.24.24-.25.43-.56.49-.93.12-.6.19-1.84.19-3.74a9.3 9.3 0 0 0-.19-2.27c-.12-.43-.3-.74-.56-.92a.8.8 0 0 0-.55-.18Zm9.38-.37v1.16c.5-.49.93-.85 1.36-1.1.43-.25.87-.37 1.36-.37.62 0 1.11.19 1.48.5.37.3.68.73.8 1.22.13.37.19 1.1.19 2.15v3.56c0 .67.06 1.16.18 1.29.13.18.38.3.8.3v.37h-4.62v-.37c.37-.06.61-.18.74-.43.12-.18.18-.55.18-1.22v-4.05c0-.74 0-1.23-.06-1.42-.06-.18-.18-.36-.3-.43a.7.7 0 0 0-.5-.18c-.56 0-1.05.37-1.55 1.23v4.85c0 .67.07 1.1.19 1.28.12.19.37.31.68.37v.37h-4.63v-.37c.37-.06.68-.18.8-.37.12-.12.19-.55.19-1.28v-5.16c0-.67-.07-1.1-.19-1.29-.12-.18-.37-.3-.8-.3v-.37h3.7v.06Zm11.05-3.32v3.32h2.16v.98h-2.16v5.58c0 .56 0 .86.07 1.05.06.12.12.24.24.37.13.12.25.12.37.12.44 0 .8-.3 1.18-.98l.3.24c-.55 1.23-1.35 1.84-2.59 1.84-.55 0-1.05-.18-1.48-.49-.37-.3-.68-.67-.74-1.04-.06-.25-.12-.8-.12-1.78v-4.91h-1.18v-.37a11.02 11.02 0 0 0 3.58-3.99h.37v.06Zm10.75 7.5h-5c.06 1.22.37 2.14.98 2.88.44.55 1 .8 1.6.8.38 0 .75-.13 1.06-.31.3-.25.68-.62 1.05-1.17l.3.18a5.68 5.68 0 0 1-1.66 2.15c-.62.43-1.3.62-2.1.62-1.36 0-2.4-.5-3.09-1.54a5.5 5.5 0 0 1-.86-3.13c0-1.53.43-2.7 1.23-3.62.8-.92 1.8-1.35 2.9-1.35.93 0 1.73.37 2.41 1.1.75.8 1.12 1.9 1.18 3.38Zm-2.41-.62c0-1.05-.06-1.78-.19-2.15-.12-.37-.3-.68-.55-.86-.13-.12-.31-.18-.56-.18-.3 0-.61.18-.8.49a4.3 4.3 0 0 0-.56 2.4v.36h2.66v-.06Z" clip-rule="evenodd"/></svg>